<?xml version="1.0" standalone="no"?><!DOCTYPE svg PUBLIC "-//W3C//DTD SVG 1.1//EN" "http://www.w3.org/Graphics/SVG/1.1/DTD/svg11.dtd"><svg t="1623373420713" class="icon" viewBox="0 0 1024 1024" version="1.1" xmlns="http://www.w3.org/2000/svg" p-id="1368" xmlns:xlink="http://www.w3.org/1999/xlink" width="48" height="48"><defs><style type="text/css"></style></defs><path d="M65.301 495.11s45.141-31.266 76.845-31.266c59.828 2.065 60.995 37.531 89.113 37.531 28.11 0 39.044-37.531 92.777-37.531s58.576 37.531 92.783 37.531c34.201 0 34.439-37.531 88.01-37.531 53.577 0 55.996 37.531 96.215 37.531 40.226 0 19.526-37.531 84.192-37.531 64.665 0 64.665 37.531 95.202 37.531 30.536 0 36.626-37.531 85.437-37.531s64.665 37.531 91.531 37.531a232.413 232.413 0 0 1 0 58.335c-24.447 11.47-65.916-34.398-85.441-34.398-19.526 0-53.727 36.199-92.777 36.199-39.052 0-68.336-44.799-91.532-44.799-23.196 0-29.286 44.799-91.526 44.799-62.247 0-50.92-36.199-91.376-36.199-40.452 0-29.44 36.199-86.765 36.199s-58.571-36.199-96.37-36.199c-37.799 0-31.788 36.199-79.346 36.199-47.56 0-65.917-36.199-101.293-36.199-35.38 0-50.061 36.199-75.676 36.199 1.248-17.466-0.003-66.401-0.003-66.401zM65.301 225.11s45.141-31.266 76.845-31.266c59.828 2.065 60.995 37.531 89.113 37.531 28.11 0 39.044-37.531 92.777-37.531s58.576 37.531 92.783 37.531c34.201 0 34.439-37.531 88.01-37.531 53.577 0 55.996 37.531 96.215 37.531 40.226 0 19.526-37.531 84.192-37.531 64.665 0 64.665 37.531 95.202 37.531 30.536 0 36.626-37.531 85.437-37.531s64.665 37.531 91.531 37.531a232.413 232.413 0 0 1 0 58.335c-24.447 11.47-65.916-34.398-85.441-34.398-19.526 0-53.727 36.199-92.777 36.199-39.052 0-68.336-44.8-91.532-44.8-23.196 0-29.286 44.8-91.526 44.8-62.247 0-50.92-36.199-91.376-36.199-40.452 0-29.44 36.199-86.765 36.199s-58.571-36.199-96.37-36.199c-37.799 0-31.788 36.199-79.346 36.199-47.56 0-65.917-36.199-101.293-36.199-35.38 0-50.061 36.199-75.676 36.199 1.248-17.466-0.003-66.401-0.003-66.401zM64.833 765.11s45.141-31.266 76.845-31.266c59.828 2.065 60.995 37.531 89.113 37.531 28.11 0 39.044-37.531 92.777-37.531s58.576 37.531 92.783 37.531c34.201 0 34.439-37.531 88.01-37.531 53.577 0 55.996 37.531 96.215 37.531 40.226 0 19.526-37.531 84.192-37.531 64.665 0 64.665 37.531 95.202 37.531 30.536 0 36.626-37.531 85.437-37.531s64.665 37.531 91.531 37.531a232.413 232.413 0 0 1 0 58.335c-24.447 11.47-65.916-34.398-85.441-34.398-19.526 0-53.727 36.199-92.777 36.199-39.052 0-68.336-44.799-91.532-44.799-23.196 0-29.286 44.799-91.526 44.799-62.247 0-50.92-36.199-91.376-36.199-40.452 0-29.44 36.199-86.765 36.199s-58.571-36.199-96.37-36.199-31.788 36.199-79.346 36.199c-47.56 0-65.917-36.199-101.293-36.199-35.38 0-50.061 36.199-75.676 36.199 1.248-17.466-0.003-66.401-0.003-66.401z" p-id="1369"></path></svg>